<svg xmlns="http://www.w3.org/2000/svg"  viewBox="0 0 64 64" width="16px" height="16px"><linearGradient id="7f~D7QRHDLyvGI1beCSNAa" x1="32" x2="32" y1="24.5" y2="39.054" gradientUnits="userSpaceOnUse" spreadMethod="reflect"><stop offset="0" stop-color="#1a6dff"/><stop offset="1" stop-color="#c822ff"/></linearGradient><path fill="url(#7f~D7QRHDLyvGI1beCSNAa)" d="M58,38H6c-1.654,0-3-1.346-3-3v-6c0-1.654,1.346-3,3-3h52c1.654,0,3,1.346,3,3v6 C61,36.654,59.654,38,58,38z M6,28c-0.552,0-1,0.448-1,1v6c0,0.552,0.448,1,1,1h52c0.552,0,1-0.448,1-1v-6c0-0.552-0.448-1-1-1H6z"/><linearGradient id="7f~D7QRHDLyvGI1beCSNAb" x1="32" x2="32" y1="28" y2="36.016" gradientUnits="userSpaceOnUse" spreadMethod="reflect"><stop offset="0" stop-color="#6dc7ff"/><stop offset="1" stop-color="#e6abff"/></linearGradient><path fill="url(#7f~D7QRHDLyvGI1beCSNAb)" d="M57,33c0,0.552-0.448,1-1,1H8c-0.552,0-1-0.448-1-1v-2c0-0.552,0.448-1,1-1h48 c0.552,0,1,0.448,1,1V33z"/></svg>