<svg xmlns="http://www.w3.org/2000/svg" xmlns:xlink="http://www.w3.org/1999/xlink" viewBox="0,0,256,256" width="12px" height="12px" fill-rule="evenodd"><g fill="none" fill-rule="evenodd" stroke="none" stroke-width="1" stroke-linecap="butt" stroke-linejoin="miter" stroke-miterlimit="10" stroke-dasharray="" stroke-dashoffset="0" font-family="none" font-weight="none" font-size="none" text-anchor="none" style="mix-blend-mode: normal"><g transform="scale(10.66667,10.66667)"><g><path d="M8,9c0,-0.56 0.44,-1 1,-1h6c0.55,0 1,0.44 1,1v6c0,0.55 -0.45,1 -1,1h-6c-0.56,0 -1,-0.45 -1,-1zM10,10v4h4v-4z" fill="#f5f5f5"></path><g fill="#ffffff"><path d="M2,3c0,-0.56 0.44,-1 1,-1h6c0.55,0 1,0.44 1,1v6c0,0.55 -0.45,1 -1,1h-6c-0.56,0 -1,-0.45 -1,-1zM4,4v4h4v-4z"></path><path d="M2,15c0,-0.56 0.44,-1 1,-1h6c0.55,0 1,0.44 1,1v6c0,0.55 -0.45,1 -1,1h-6c-0.56,0 -1,-0.45 -1,-1zM4,16v4h4v-4z"></path><path d="M14,3c0,-0.56 0.44,-1 1,-1h6c0.55,0 1,0.44 1,1v6c0,0.55 -0.45,1 -1,1h-6c-0.56,0 -1,-0.45 -1,-1zM16,4v4h4v-4z"></path><path d="M14,15c0,-0.56 0.44,-1 1,-1h6c0.55,0 1,0.44 1,1v6c0,0.55 -0.45,1 -1,1h-6c-0.56,0 -1,-0.45 -1,-1zM16,16v4h4v-4z"></path></g></g></g></g></svg>