<svg xmlns="http://www.w3.org/2000/svg" xmlns:xlink="http://www.w3.org/1999/xlink" viewBox="0,0,256,256" width="12px" height="12px" fill-rule="nonzero"><g fill="none" fill-rule="nonzero" stroke="#ffffff" stroke-width="2" stroke-linecap="butt" stroke-linejoin="miter" stroke-miterlimit="10" stroke-dasharray="" stroke-dashoffset="0" font-family="none" font-weight="none" font-size="none" text-anchor="none" style="mix-blend-mode: normal"><g transform="scale(10.66667,10.66667)"><path d="M10,10v0c-1.105,0 -2,-0.895 -2,-2v-2c0,-1.105 0.895,-2 2,-2v0c1.105,0 2,0.895 2,2v2c0,1.105 -0.895,2 -2,2zM15,3v8M5,3v8M14,20v0c-1.105,0 -2,-0.895 -2,-2v-2c0,-1.105 0.895,-2 2,-2v0c1.105,0 2,0.895 2,2v2c0,1.105 -0.895,2 -2,2zM7,20v0c-1.105,0 -2,-0.895 -2,-2v-2c0,-1.105 0.895,-2 2,-2v0c1.105,0 2,0.895 2,2v2c0,1.105 -0.895,2 -2,2zM19,13v8M19,3v8"></path></g></g></svg>